# xmcd
#
# Track frame offsets:
#	150
#	31342
#	64759
#	94781
#	130920
#	159702
#	191082
#	224314
#	262549
#	296692
#
# Disc length: 4571 seconds
#
# Revision: 0
# Processed by: cddbd v1.5.1PL0 Copyright (c) Steve Scherf et al.
# Submitted via: audiograbber 1.83.01
#
DISCID=8e11d90a
DTITLE=Planum - Elaborate
DYEAR=2005
DGENRE=Psychedelic
TTITLE0=Deep
TTITLE1=More Action
TTITLE2=Album
TTITLE3=Innovate
TTITLE4=Disco Planum
TTITLE5=The Lost Music
TTITLE6=Aspect
TTITLE7=Future Sound of Planum
TTITLE8=The Morning Murderer
TTITLE9=Loneliness
EXTD=
EXTT0=
EXTT1=
EXTT2=
EXTT3=
EXTT4=
EXTT5=
EXTT6=
EXTT7=
EXTT8=
EXTT9=
PLAYORDER=
